<svg id="Layer_1" data-name="Layer 1" xmlns="http://www.w3.org/2000/svg" viewBox="0 0 1600 1600" fill="currentColor">
  <polygon points="967.64 795.15 990.96 859.46 1055.27 882.78 990.96 906.11 967.64 970.41 944.31 906.11 880.01 882.78 944.31 859.46 967.64 795.15"/>
  <polygon points="880.01 930.49 890.63 959.78 919.93 970.41 890.63 981.04 880.01 1010.34 869.38 981.04 840.08 970.41 869.38 959.78 880.01 930.49"/>
  <rect x="85.17" y="1095.32" width="324.56" height="47.7" transform="translate(-718.9 502.77) rotate(-45)"/>
  <circle cx="362.2" cy="1004.42" r="55.77"/>
  <path d="M1585.58,543.64c-18.05-75.01-140.32-86.06-239.48-82.04-416.7,16.42-642.36,221.15-758.27,390.01-86.56,126.09-125.8,249.7-142.11,316.43-100.15-17.46-194.04-3.73-260.24,13.1,17-66.88,30.86-162.03,12.55-263.36,69.87-21.17,205.31-69.7,305.91-151.77l26.83,26.83,67.46-67.48-92.52-92.52-33.73,33.74c-116.18,116.17-339.41,170.46-341.65,170.99l-48.28,11.52,13.39,47.77c47.58,169.68-28.03,338.16-28.76,339.76l-54.46,117.77,117.77-54.45c1.68-.78,168.93-76.68,339.77-28.76l52.3,14.58,7.8-53.75c3.82-26.4,101.95-646.77,820.03-675.08,39.29-1.54,82.77,1.45,112.81,6.88,8.93,1.62,11.85,13.02,4.78,18.7-19.35,15.53-53.31,38.29-112.4,69.44,3.97,19.72,8.88,54.97,7.35,103.51,174.9-86.9,238.41-148.37,223.16-211.83Z"/>
  <path d="M799.8,1272.42c-50.73-.74-101.61-9.09-151.26-25.17-25.06-8.12-38.8-35.02-30.68-60.08,8.1-25.06,34.91-38.86,60.09-30.68,106.16,34.41,219.42,25.37,318.81-25.4,99.4-50.76,173.09-137.21,207.48-243.39,34.39-106.19,25.38-219.41-25.39-318.82-50.77-99.41-137.21-173.1-243.4-207.49-219.16-70.99-455.29,49.58-526.3,268.79-8.1,25.06-35,38.78-60.09,30.68-25.06-8.12-38.8-35.02-30.68-60.08,87.2-269.25,377.18-417.34,646.48-330.16,130.43,42.24,236.59,132.75,298.96,254.86,62.37,122.1,73.43,261.18,31.18,391.61-42.25,130.43-132.75,236.61-254.86,298.97-75.63,38.63-157.79,57.58-240.35,56.37Z"/>
</svg>
