<svg xmlns="http://www.w3.org/2000/svg" xmlns:svg="http://www.w3.org/2000/svg" id="Layer_1"
  data-name="Layer 1" viewBox="0 0 1249.7644 784.25049" version="1.1" width="1249.7644"
  height="784.25049">
  <defs id="defs128">
    <rect x="642.05457" y="603.53131" width="189.4061" height="139.64687" id="rect1201" />
    <style id="style126">
      .cls-1 { fill: var(--text-1, #000000); }
    </style>
  </defs>
  <g transform="translate(-176.37526,-12.520069)" id="g168">
    <polygon class="cls-1"
      points="881.42,359.08 870.26,328.34 839.52,317.18 870.26,306.03 881.42,275.28 892.57,306.03 923.32,317.18 892.57,328.34 "
      id="polygon156" />
    <polygon class="cls-1"
      points="839.52,378.17 834.44,364.16 820.43,359.08 834.44,354 839.52,339.99 844.6,354 858.61,359.08 844.6,364.16 "
      id="polygon158" />
    <rect class="cls-1" x="459.47" y="418.81" width="155.19" height="22.809999"
      transform="rotate(-45,537.0684,430.20899)" id="rect160" />
    <circle class="cls-1" cx="591.92999" cy="375.35001" r="26.67" id="circle162" />
    <path class="cls-1"
      d="m 1176.89,155.02 c -8.63,-35.87 -67.09,-41.15 -114.51,-39.23 -199.24,7.85 -307.14,105.74 -362.56,186.48 -41.39,60.29 -60.15,119.39 -67.95,151.3 -47.89,-8.35 -92.78,-1.79 -124.43,6.26 8.13,-31.98 14.75,-77.47 6,-125.93 33.41,-10.12 98.17,-33.32 146.27,-72.57 l 12.83,12.83 32.26,-32.26 -44.24,-44.24 -16.13,16.13 c -55.55,55.54 -162.29,81.5 -163.36,81.76 l -23.09,5.51 6.4,22.84 c 22.75,81.13 -13.4,161.69 -13.75,162.45 l -26.04,56.31 56.31,-26.04 c 0.8,-0.38 80.77,-36.67 162.46,-13.75 l 25.01,6.97 3.73,-25.7 c 1.83,-12.62 48.75,-309.25 392.09,-322.78 18.78,-0.74 39.58,0.69 53.94,3.29 4.27,0.77 5.67,6.23 2.28,8.94 -9.25,7.43 -25.49,18.31 -53.74,33.2 1.9,9.43 4.24,26.28 3.51,49.49 83.63,-41.55 113.99,-70.94 106.7,-101.28 z"
      id="path164" />
    <path class="cls-1"
      d="m 801.17,503.49 c -24.26,-0.36 -48.58,-4.35 -72.32,-12.04 -11.98,-3.88 -18.55,-16.74 -14.67,-28.73 3.87,-11.98 16.69,-18.58 28.73,-14.67 50.76,16.45 104.92,12.13 152.43,-12.14 47.53,-24.27 82.76,-65.61 99.2,-116.38 16.44,-50.77 12.14,-104.91 -12.14,-152.44 C 958.12,119.56 916.8,84.33 866.02,67.88 761.23,33.94 648.33,91.59 614.37,196.4 c -3.87,11.98 -16.74,18.54 -28.73,14.67 -11.98,-3.88 -18.55,-16.74 -14.67,-28.73 41.7,-128.74 180.35,-199.55 309.12,-157.86 62.36,20.2 113.13,63.48 142.95,121.86 29.82,58.38 35.11,124.88 14.91,187.25 -20.2,62.36 -63.48,113.13 -121.86,142.95 -36.16,18.47 -75.44,27.53 -114.92,26.95 z"
      id="path166" />
  </g>
  <g id="layer1" style="display:inline" transform="translate(-383.79569,-12.520069)">
    <g role="img" aria-label="MEROVEX PRESS" id="text3945"
      style="font-weight:600;font-size:192px;font-family:'Source Sans Pro';-inkscape-font-specification:'Source Sans Pro Semi-Bold';fill-opacity:0;stop-color:#000000">
      <path
        d="m 458.02369,661.67854 q 0.768,-1.536 2.688,-1.536 h 17.856 q 0.96,0 1.536,0.768 0.768,0.576 0.768,1.536 v 129.792 q 0,0.96 -0.768,1.728 -0.576,0.576 -1.536,0.576 h -17.664 q -0.96,0 -1.728,-0.576 -0.576,-0.768 -0.576,-1.728 v -91.008 q 0,-0.768 -0.384,-0.768 -0.384,-0.192 -0.768,0.384 l -20.352,33.6 q -0.768,1.536 -2.688,1.536 h -3.648 q -1.92,0 -2.688,-1.536 l -20.352,-33.408 q -0.384,-0.576 -0.768,-0.384 -0.384,0 -0.384,0.768 v 90.816 q 0,0.96 -0.768,1.728 -0.576,0.576 -1.536,0.576 h -17.664 q -0.96,0 -1.728,-0.576 -0.576,-0.768 -0.576,-1.728 v -129.792 q 0,-0.96 0.576,-1.536 0.768,-0.768 1.728,-0.768 h 17.664 q 1.92,0 2.688,1.536 l 25.152,40.128 q 0.576,1.152 1.152,0 z"
        style="font-stretch:semi-condensed;font-family:'Barlow Semi Condensed';-inkscape-font-specification:'Barlow Semi Condensed,  Semi-Bold Semi-Condensed';opacity:0.98;fill-opacity:0.989637;stroke:var(--text-1, #000000);fill:var(--text-1, #000000)"
        id="path304" />
      <path
        d="m 583.97548,677.03854 q 0,0.96 -0.768,1.728 -0.576,0.576 -1.536,0.576 h -53.376 q -0.96,0 -0.96,0.96 v 36.096 q 0,0.96 0.96,0.96 h 34.176 q 0.96,0 1.536,0.768 0.768,0.576 0.768,1.536 v 14.592 q 0,0.96 -0.768,1.728 -0.576,0.576 -1.536,0.576 h -34.176 q -0.96,0 -0.96,0.96 v 36.864 q 0,0.96 0.96,0.96 h 53.376 q 0.96,0 1.536,0.768 0.768,0.576 0.768,1.536 v 14.592 q 0,0.96 -0.768,1.728 -0.576,0.576 -1.536,0.576 h -74.304 q -0.96,0 -1.728,-0.576 -0.576,-0.768 -0.576,-1.728 v -129.792 q 0,-0.96 0.576,-1.536 0.768,-0.768 1.728,-0.768 h 74.304 q 0.96,0 1.536,0.768 0.768,0.576 0.768,1.536 z"
        style="font-stretch:semi-condensed;font-family:'Barlow Semi Condensed';-inkscape-font-specification:'Barlow Semi Condensed,  Semi-Bold Semi-Condensed';opacity:0.98;fill-opacity:0.989637;stroke:var(--text-1, #000000);fill:var(--text-1, #000000)"
        id="path306" />
      <path
        d="m 667.68721,794.54254 q -2.112,0 -2.688,-1.92 l -20.736,-55.104 q -0.384,-0.768 -0.96,-0.768 h -16.512 q -0.96,0 -0.96,0.96 v 54.528 q 0,0.96 -0.768,1.728 -0.576,0.576 -1.536,0.576 h -17.664 q -0.96,0 -1.728,-0.576 -0.576,-0.768 -0.576,-1.728 v -129.792 q 0,-0.96 0.576,-1.536 0.768,-0.768 1.728,-0.768 h 44.352 q 10.944,0 19.392,4.992 8.448,4.8 13.056,13.824 4.608,8.832 4.608,20.352 0,12.48 -5.76,21.696 -5.76,9.216 -15.744,13.056 -0.96,0.384 -0.576,1.344 l 22.656,56.448 q 0.192,0.384 0.192,1.152 0,1.536 -1.92,1.536 z m -40.896,-115.2 q -0.96,0 -0.96,0.96 v 38.208 q 0,0.96 0.96,0.96 h 20.16 q 8.064,0 13.056,-5.376 4.992,-5.568 4.992,-14.592 0,-9.216 -4.992,-14.592 -4.992,-5.568 -13.056,-5.568 z"
        style="font-stretch:semi-condensed;font-family:'Barlow Semi Condensed';-inkscape-font-specification:'Barlow Semi Condensed,  Semi-Bold Semi-Condensed';opacity:0.98;fill-opacity:0.989637;stroke:var(--text-1, #000000);fill:var(--text-1, #000000)"
        id="path308" />
      <path
        d="m 746.40697,796.27054 q -12.672,0 -22.464,-5.184 -9.6,-5.184 -14.976,-14.592 -5.184,-9.6 -5.184,-22.08 v -54.144 q 0,-12.288 5.184,-21.696 5.376,-9.6 14.976,-14.784 9.792,-5.184 22.464,-5.184 12.864,0 22.464,5.184 9.792,5.184 15.168,14.784 5.376,9.408 5.376,21.696 v 54.144 q 0,12.48 -5.376,22.08 -5.376,9.408 -15.168,14.592 -9.6,5.184 -22.464,5.184 z m 0,-19.2 q 9.408,0 14.976,-5.952 5.76,-6.144 5.76,-15.744 v -55.68 q 0,-9.792 -5.76,-15.744 -5.568,-6.144 -14.976,-6.144 -9.216,0 -14.784,6.144 -5.568,5.952 -5.568,15.744 v 55.68 q 0,9.6 5.568,15.744 5.568,5.952 14.784,5.952 z"
        style="font-stretch:semi-condensed;font-family:'Barlow Semi Condensed';-inkscape-font-specification:'Barlow Semi Condensed,  Semi-Bold Semi-Condensed';opacity:0.98;fill-opacity:0.989637;stroke:var(--text-1, #000000);fill:var(--text-1, #000000)"
        id="path310" />
      <path
        d="m 839.71836,794.54254 q -2.112,0 -2.688,-1.92 l -33.984,-129.984 v -0.768 q 0,-1.728 2.112,-1.728 h 19.008 q 1.92,0 2.496,1.92 l 22.656,96.576 q 0.192,0.768 0.576,0.768 0.384,0 0.576,-0.768 l 22.08,-96.384 q 0.576,-2.112 2.496,-2.112 h 18.624 q 2.496,0 1.92,2.496 l -33.984,129.984 q -0.576,1.92 -2.688,1.92 z"
        style="font-stretch:semi-condensed;font-family:'Barlow Semi Condensed';-inkscape-font-specification:'Barlow Semi Condensed,  Semi-Bold Semi-Condensed';opacity:0.98;fill-opacity:0.989637;stroke:var(--text-1, #000000);fill:var(--text-1, #000000)"
        id="path312" />
      <path
        d="m 991.58986,677.03854 q 0,0.96 -0.768,1.728 -0.576,0.576 -1.536,0.576 h -53.376 q -0.96,0 -0.96,0.96 v 36.096 q 0,0.96 0.96,0.96 h 34.176 q 0.96,0 1.536,0.768 0.768,0.576 0.768,1.536 v 14.592 q 0,0.96 -0.768,1.728 -0.576,0.576 -1.536,0.576 h -34.176 q -0.96,0 -0.96,0.96 v 36.864 q 0,0.96 0.96,0.96 h 53.376 q 0.96,0 1.536,0.768 0.768,0.576 0.768,1.536 v 14.592 q 0,0.96 -0.768,1.728 -0.576,0.576 -1.536,0.576 h -74.304 q -0.96,0 -1.728,-0.576 -0.576,-0.768 -0.576,-1.728 v -129.792 q 0,-0.96 0.576,-1.536 0.768,-0.768 1.728,-0.768 h 74.304 q 0.96,0 1.536,0.768 0.768,0.576 0.768,1.536 z"
        style="font-stretch:semi-condensed;font-family:'Barlow Semi Condensed';-inkscape-font-specification:'Barlow Semi Condensed,  Semi-Bold Semi-Condensed';opacity:0.98;fill-opacity:0.989637;stroke:var(--text-1, #000000);fill:var(--text-1, #000000)"
        id="path314" />
      <path
        d="m 1006.9496,794.54254 q -1.344,0 -1.92,-0.576 -0.384,-0.768 0.192,-2.112 l 32.256,-63.936 q 0.192,-0.576 0,-1.152 l -32.256,-63.936 q -0.384,-0.768 -0.384,-1.152 0,-1.536 2.112,-1.536 h 18.624 q 1.92,0 2.688,1.728 l 21.888,44.736 q 0.576,0.768 1.152,0 l 21.696,-44.736 q 0.96,-1.728 2.688,-1.728 h 18.432 q 1.344,0 1.728,0.768 0.576,0.576 0,1.92 l -32.256,63.936 q -0.192,0.576 0,1.152 l 32.256,63.936 q 0.384,0.768 0.384,1.152 0,1.536 -2.112,1.536 h -18.432 q -1.728,0 -2.688,-1.728 l -21.696,-44.544 q -0.576,-0.96 -1.152,0 l -21.888,44.544 q -0.768,1.728 -2.688,1.728 z"
        style="font-stretch:semi-condensed;font-family:'Barlow Semi Condensed';-inkscape-font-specification:'Barlow Semi Condensed,  Semi-Bold Semi-Condensed';opacity:0.98;fill-opacity:0.989637;stroke:var(--text-1, #000000);fill:var(--text-1, #000000)"
        id="path316" />
      <path
        d="m 1198.757,659.95054 q 11.136,0 19.584,4.992 8.64,4.992 13.248,14.208 4.8,9.024 4.8,20.736 0,11.52 -4.8,20.352 -4.608,8.832 -13.248,13.824 -8.448,4.8 -19.392,4.8 h -23.616 q -0.96,0 -0.96,0.96 v 52.416 q 0,0.96 -0.768,1.728 -0.576,0.576 -1.536,0.576 h -17.664 q -0.96,0 -1.728,-0.576 -0.576,-0.768 -0.576,-1.728 v -129.984 q 0,-0.96 0.576,-1.536 0.768,-0.768 1.728,-0.768 z m -3.264,61.056 q 8.448,0 13.44,-5.568 5.184,-5.76 5.184,-15.168 0,-9.6 -5.184,-15.36 -4.992,-5.76 -13.44,-5.76 h -20.16 q -0.96,0 -0.96,0.96 v 39.936 q 0,0.96 0.96,0.96 z"
        style="font-stretch:semi-condensed;font-family:'Barlow Semi Condensed';-inkscape-font-specification:'Barlow Semi Condensed,  Semi-Bold Semi-Condensed';opacity:0.98;fill-opacity:0.989637;stroke:var(--text-1, #000000);fill:var(--text-1, #000000)"
        id="path318" />
      <path
        d="m 1317.9888,794.54254 q -2.112,0 -2.688,-1.92 l -20.736,-55.104 q -0.384,-0.768 -0.96,-0.768 h -16.512 q -0.96,0 -0.96,0.96 v 54.528 q 0,0.96 -0.768,1.728 -0.576,0.576 -1.536,0.576 h -17.664 q -0.96,0 -1.728,-0.576 -0.576,-0.768 -0.576,-1.728 v -129.792 q 0,-0.96 0.576,-1.536 0.768,-0.768 1.728,-0.768 h 44.352 q 10.944,0 19.392,4.992 8.448,4.8 13.056,13.824 4.608,8.832 4.608,20.352 0,12.48 -5.76,21.696 -5.76,9.216 -15.744,13.056 -0.96,0.384 -0.576,1.344 l 22.656,56.448 q 0.192,0.384 0.192,1.152 0,1.536 -1.92,1.536 z m -40.896,-115.2 q -0.96,0 -0.96,0.96 v 38.208 q 0,0.96 0.96,0.96 h 20.16 q 8.064,0 13.056,-5.376 4.992,-5.568 4.992,-14.592 0,-9.216 -4.992,-14.592 -4.992,-5.568 -13.056,-5.568 z"
        style="font-stretch:semi-condensed;font-family:'Barlow Semi Condensed';-inkscape-font-specification:'Barlow Semi Condensed,  Semi-Bold Semi-Condensed';opacity:0.98;fill-opacity:0.989637;stroke:var(--text-1, #000000);fill:var(--text-1, #000000)"
        id="path320" />
      <path
        d="m 1435.8766,677.03854 q 0,0.96 -0.768,1.728 -0.576,0.576 -1.536,0.576 h -53.376 q -0.96,0 -0.96,0.96 v 36.096 q 0,0.96 0.96,0.96 h 34.176 q 0.96,0 1.536,0.768 0.768,0.576 0.768,1.536 v 14.592 q 0,0.96 -0.768,1.728 -0.576,0.576 -1.536,0.576 h -34.176 q -0.96,0 -0.96,0.96 v 36.864 q 0,0.96 0.96,0.96 h 53.376 q 0.96,0 1.536,0.768 0.768,0.576 0.768,1.536 v 14.592 q 0,0.96 -0.768,1.728 -0.576,0.576 -1.536,0.576 h -74.304 q -0.96,0 -1.728,-0.576 -0.576,-0.768 -0.576,-1.728 v -129.792 q 0,-0.96 0.576,-1.536 0.768,-0.768 1.728,-0.768 h 74.304 q 0.96,0 1.536,0.768 0.768,0.576 0.768,1.536 z"
        style="font-stretch:semi-condensed;font-family:'Barlow Semi Condensed';-inkscape-font-specification:'Barlow Semi Condensed,  Semi-Bold Semi-Condensed';opacity:0.98;fill-opacity:0.989637;stroke:var(--text-1, #000000);fill:var(--text-1, #000000)"
        id="path322" />
      <path
        d="m 1492.9003,796.07854 q -12.672,0 -22.272,-4.416 -9.6,-4.608 -14.976,-12.864 -5.184,-8.448 -5.184,-19.392 v -4.992 q 0,-0.96 0.576,-1.536 0.768,-0.768 1.728,-0.768 h 17.28 q 0.96,0 1.536,0.768 0.768,0.576 0.768,1.536 v 3.84 q 0,8.256 5.76,13.44 5.76,5.184 15.552,5.184 9.024,0 13.824,-4.608 4.8,-4.608 4.8,-12.096 0,-5.184 -2.688,-8.832 -2.688,-3.84 -7.68,-6.912 -4.8,-3.264 -14.976,-8.64 -11.712,-6.144 -18.816,-10.944 -7.104,-4.8 -12.096,-12.288 -4.8,-7.488 -4.8,-18.24 0,-16.512 10.944,-26.112 11.136,-9.6 29.184,-9.6 12.48,0 22.08,4.8 9.6,4.608 14.784,13.248 5.184,8.64 5.184,19.776 v 4.032 q 0,0.96 -0.768,1.728 -0.576,0.576 -1.536,0.576 h -17.28 q -0.96,0 -1.728,-0.576 -0.576,-0.768 -0.576,-1.728 v -3.648 q 0,-8.256 -5.568,-13.632 -5.568,-5.376 -14.976,-5.376 -8.256,0 -13.056,4.416 -4.8,4.224 -4.8,11.904 0,5.184 2.496,8.832 2.496,3.648 7.488,6.912 5.184,3.264 15.552,8.448 13.824,7.872 20.352,12.288 6.528,4.416 10.944,11.52 4.608,6.912 4.608,17.088 0,16.896 -11.328,26.88 -11.328,9.984 -30.336,9.984 z"
        style="font-stretch:semi-condensed;font-family:'Barlow Semi Condensed';-inkscape-font-specification:'Barlow Semi Condensed,  Semi-Bold Semi-Condensed';opacity:0.98;fill-opacity:0.989637;stroke:var(--text-1, #000000);fill:var(--text-1, #000000)"
        id="path324" />
      <path
        d="m 1591.3961,796.07854 q -12.672,0 -22.272,-4.416 -9.6,-4.608 -14.976,-12.864 -5.184,-8.448 -5.184,-19.392 v -4.992 q 0,-0.96 0.576,-1.536 0.768,-0.768 1.728,-0.768 h 17.28 q 0.96,0 1.536,0.768 0.768,0.576 0.768,1.536 v 3.84 q 0,8.256 5.76,13.44 5.76,5.184 15.552,5.184 9.024,0 13.824,-4.608 4.8,-4.608 4.8,-12.096 0,-5.184 -2.688,-8.832 -2.688,-3.84 -7.68,-6.912 -4.8,-3.264 -14.976,-8.64 -11.712,-6.144 -18.816,-10.944 -7.104,-4.8 -12.096,-12.288 -4.8,-7.488 -4.8,-18.24 0,-16.512 10.944,-26.112 11.136,-9.6 29.184,-9.6 12.48,0 22.08,4.8 9.6,4.608 14.784,13.248 5.184,8.64 5.184,19.776 v 4.032 q 0,0.96 -0.768,1.728 -0.576,0.576 -1.536,0.576 h -17.28 q -0.96,0 -1.728,-0.576 -0.576,-0.768 -0.576,-1.728 v -3.648 q 0,-8.256 -5.568,-13.632 -5.568,-5.376 -14.976,-5.376 -8.256,0 -13.056,4.416 -4.8,4.224 -4.8,11.904 0,5.184 2.496,8.832 2.496,3.648 7.488,6.912 5.184,3.264 15.552,8.448 13.824,7.872 20.352,12.288 6.528,4.416 10.944,11.52 4.608,6.912 4.608,17.088 0,16.896 -11.328,26.88 -11.328,9.984 -30.336,9.984 z"
        style="font-stretch:semi-condensed;font-family:'Barlow Semi Condensed';-inkscape-font-specification:'Barlow Semi Condensed,  Semi-Bold Semi-Condensed';opacity:0.98;fill-opacity:0.989637;stroke:var(--text-1, #000000);fill:var(--text-1, #000000)"
        id="path326" />
    </g>
  </g>
  <text xml:space="preserve"
    style="font-style:normal;font-variant:normal;font-weight:normal;font-stretch:normal;font-size:18.6667px;line-height:normal;font-family:'Fjalla One';-inkscape-font-specification:'Fjalla One, Normal';font-variant-ligatures:normal;font-variant-position:normal;font-variant-caps:normal;font-variant-numeric:normal;font-variant-alternates:normal;font-variant-east-asian:normal;font-feature-settings:normal;font-variation-settings:normal;text-indent:0;text-align:start;text-decoration-line:none;text-decoration-style:solid;text-decoration-color:#000000;letter-spacing:normal;word-spacing:normal;text-transform:none;writing-mode:lr-tb;direction:ltr;text-orientation:mixed;dominant-baseline:auto;baseline-shift:baseline;text-anchor:start;white-space:normal;shape-padding:0;shape-margin:0;inline-size:0;opacity:1;vector-effect:none;fill:#000000;fill-opacity:0;stroke-width:1;stroke-linecap:butt;stroke-linejoin:miter;stroke-miterlimit:4;stroke-dasharray:none;stroke-dashoffset:0;stroke-opacity:1;-inkscape-stroke:none;stop-color:#000000;stop-opacity:1"
    x="808.98877" y="707.86517" id="text3941" transform="translate(-383.79569,-12.520069)"><tspan id="tspan3939" x="808.98877" y="707.86517"/></text>
</svg>